/* XPM */
static char *mess[] = {
/* columns rows colors chars-per-pixel */
"32 32 225 2 ",
"   c #A4786CEA335C",
".  c #A46C6D32341F",
"X  c #AAF2769D3BB7",
"o  c #AF117ABF3E8F",
"O  c #B2AE7A803D3D",
"+  c #B1847B143EE7",
"@  c #B1097C4D3E1E",
"#  c #FFF99ACE1646",
"$  c #FFFF9B4E1648",
"%  c #FFFA9AE116A8",
"&  c #FFFA9DE11A47",
"*  c #FFDF9D241BDF",
"=  c #FFE39D7B1CB3",
"-  c #FFFF9E321CA4",
";  c #FFC39EEF2002",
":  c #FF38A00C202C",
">  c #FFF29F052139",
",  c #FFFF9F672208",
"<  c #FFC1A06F22B0",
"1  c #FF4EA220250E",
"2  c #FFFFA1832549",
"3  c #FFEDA1C4267A",
"4  c #FFE7A1F226F1",
"5  c #FFFFA2D1275F",
"6  c #FFE5A28C281E",
"7  c #FF61A40527AB",
"8  c #FFA3A3552A2B",
"9  c #FF5DA4B32A7A",
"0  c #FF44A47C2B15",
"q  c #FB40A5CC2C95",
"w  c #FF1CA4C32BBC",
"e  c #FFFFA5B02C6A",
"r  c #FF23A6C82E31",
"t  c #FF3EA6A82F98",
"y  c #EECAAA1F3FAC",
"u  c #FB5DA7E130CD",
"i  c #FF22A6CC306A",
"p  c #FFD7A7263085",
"a  c #FEFCA7213101",
"s  c #FF1DA7483123",
"d  c #FECCA90D3264",
"f  c #FB91A94934B1",
"g  c #FEF1A93934A3",
"h  c #FF24A8BB3545",
"j  c #FF19A90835CE",
"k  c #FEAAAB0C374D",
"l  c #F692A9B33B0C",
"z  c #F258AAC03E51",
"x  c #F25FAB293F14",
"c  c #F277AB233EEC",
"v  c #F307ABAA3EF9",
"b  c #F5EEAD993FB0",
"n  c #FB83AB8839C4",
"m  c #FD7BAC1D3A72",
"M  c #FF20ABA439D7",
"N  c #FF62AA9D3B01",
"B  c #FFBDAAA33B6E",
"V  c #FD8AACB93B5E",
"C  c #FFC8AAC53BC1",
"Z  c #FF7FAB9E3D1E",
"A  c #FB41ADD33D8E",
"S  c #FE19AD863C2F",
"D  c #FD3EAD2C3D37",
"F  c #FD76AD823D10",
"G  c #FD9CAD663CFC",
"H  c #FEC6AE263D9D",
"J  c #FF3CACEA3FA7",
"K  c #FF54AD823F0D",
"L  c #B79A89E14D54",
"P  c #B9258B544DC8",
"I  c #BFEE92E25153",
"U  c #BDE091A8532D",
"Y  c #BFA092EE51D3",
"T  c #BB7C90D853FE",
"R  c #BF82955D56C6",
"E  c #BFE69575575C",
"W  c #BC55943A58F8",
"Q  c #C628956D4EC3",
"!  c #C15F928C4FEF",
"~  c #C1F4943A52B4",
"^  c #C42B967A52B9",
"/  c #C49195EE51AB",
"(  c #C45A962450F1",
")  c #C4D195E9521D",
"_  c #C4D4963052D2",
"`  c #C4CA96875350",
"'  c #C3B696AE54F0",
"]  c #C3619724555B",
"[  c #C3849763562D",
"{  c #C45196F4546A",
"}  c #C447972C556F",
"|  c #C9E89BA355CF",
" . c #CCF39E2655EB",
".. c #C0DA969E586C",
"X. c #C2A597D15B24",
"o. c #C2E399485B6E",
"O. c #C3B49AB45B8E",
"+. c #C2F099EF5CDA",
"@. c #C3CA9B115D77",
"#. c #C4F59BB95E3B",
"$. c #C4A29C6F5EC6",
"%. c #C4F69D6F5F8F",
"&. c #CAF39F7F5A62",
"*. c #D7FBA3255085",
"=. c #D843A63B5723",
"-. c #D9ADA4485140",
";. c #D9DBA59152DC",
":. c #D9FCA61F54C8",
">. c #DA1DA69955EE",
",. c #DEEFAB9256F3",
"<. c #D53AA4215997",
"1. c #D1BFA48D5BAC",
"2. c #D763A71E5B79",
"3. c #D1B8A5085DB8",
"4. c #D29FA4845C59",
"5. c #D245A5115DF3",
"6. c #D237A58E5EC3",
"7. c #D1E6A5045FAF",
"8. c #D1A7A56A5F6D",
"9. c #D2E4A5575EA7",
"0. c #D755A9135DA8",
"q. c #DFE4B1C25F21",
"w. c #EE02AB4C44EA",
"e. c #EE07AC50474D",
"r. c #E865AABF4B85",
"t. c #E809AC174E2D",
"y. c #E8C5A9FE499E",
"u. c #E88BAB224A93",
"i. c #EDF2AE104AC5",
"p. c #E86EAB914E38",
"a. c #EDC6AF2C4DE0",
"s. c #F136ABB04158",
"d. c #F6C2ABB53FC4",
"f. c #F220AD92424D",
"g. c #F74DADF14327",
"h. c #F22FAE604646",
"j. c #FA9FAEEC4108",
"k. c #FF38AD294014",
"l. c #FF37AD30401F",
"z. c #FD5CAEC6410A",
"x. c #FE5BAEEB4184",
"c. c #FF20AFBA43D7",
"v. c #FF43AF014592",
"b. c #FFCBAF054501",
"n. c #FF41AF5E457C",
"m. c #FFC9AF4C456A",
"M. c #FE37B06B4175",
"N. c #FDC7B042457D",
"B. c #FE4FB2D34451",
"V. c #FF0DB1B946DC",
"C. c #FDF5B43F47AB",
"Z. c #F20EB1934D73",
"A. c #FEE0B1B8497B",
"S. c #FD5AB2564975",
"D. c #FEBFB1F349EB",
"F. c #F9F1B43A4AAF",
"G. c #FDD8B4334DCB",
"H. c #FB78B49D4E39",
"J. c #FFFFB5304D16",
"K. c #FEF0B4784E4D",
"L. c #E687AA5E5026",
"P. c #E7FDAD7C5111",
"I. c #E895AC9650F3",
"U. c #E8C8AF2652EC",
"Y. c #EDCCB092502A",
"T. c #EDFBB144537A",
"R. c #EDC9B2E356AB",
"E. c #EDCEB3D359D3",
"W. c #EBBFB53F5B31",
"Q. c #ED3EB4E65C9C",
"!. c #ED22B68E5F36",
"~. c #F19AB4E652E6",
"^. c #FECAB3875012",
"/. c #FCC1B5AD5022",
"(. c #FFB7B7D9515D",
"). c #FE3DB5B052C4",
"_. c #FD32B69953AA",
"`. c #FE9BB5A15400",
"'. c #FE59B677554A",
"]. c #FE9EB7C654F2",
"[. c #F1A6B9FA5C6E",
"{. c #FE5FBA075EE5",
"}. c #D166A6DE6162",
"|. c #D704A76A6054",
" X c #D1BEAA156A72",
".X c #D1D7AAA56C68",
"XX c #D1A2ABC96DD2",
"oX c #D284ADC86FDA",
"OX c #D786ADA66DA9",
"+X c #DF8AB0566380",
"@X c #D761AF8C714E",
"#X c #D6A6AFE37390",
"$X c #D6B9B24C7642",
"%X c #E1C0B53D619D",
"&X c #ECE7B7B062CF",
"*X c #E633B8A464A3",
"=X c #FF66BE0C611A",
"-X c #E2B7BAF179C9",
";X c #E539BFA17F46",
":X c #F550C4276996",
">X c #FD93C0B26B3F",
",X c #ED37C12D78EE",
"<X c #FC3CC3A77117",
"1X c #FF2AC6B77BF0",
"2X c #FEAAC7FA7DCA",
"3X c #E842C41B8568",
"4X c #EDC4C99D8B45",
"5X c #EBCEC8908D2A",
"6X c #ED9BCB178EF2",
"7X c #FEC5CBE9867B",
"8X c #FF02CC698994",
"9X c #FF7BCE528D07",
"0X c #FE9ED0898E51",
"qX c #ECB5CD1991C6",
"wX c #EE87CF4694EC",
"eX c #FFFFD28891A3",
"rX c #FD64D22E9302",
"tX c #FFACD1759538",
"yX c #FF31D3BF9660",
"uX c #FD8CD5759B9A",
"iX c #FFA4D6C29D59",
"pX c #FFFFD7ED9ECC",
"aX c #FDCEDA07A308",
"sX c #FFFFDC8CA631",
"dX c None",
/* pixels */
"dXdXdXdXdXdXdXdXdXdXdXdXdXdXdXdXdXdXdXdXdXdXdXdXdXdXdXdXdXdXdXdX",
"dXdXdXdXdXdXdXdXdXdXdXdXdXdXdXdXdXdXdXdXdXdXdXdXdXdXdXdXdXdXdXdX",
"dXdXdXdXdXdXdXdXdXdXdXdXdXdXdXdXdXdXdXdXdXdXdXdXdXdXdXdXdXdXdXdX",
"dXdXdXdXdXdXdXdXdXdXdXdXdXdXdXdXdXdXdXdXdXdXdXdXdXdXdXdXdXdXdXdX",
"dXdXdXdXdXdXdXdXdXdXdXdXdXdXdXdXdXdXdXdXdXdXdXdXdXdXdXdXdXdXdXdX",
"dXdXdXdXdXdXdXdXdXdXdXdXdXdXdXdXdXdXdXdXdXdXdXdXdXdXdXdXdXdXdXdX",
"dXdXdXdXdXdXdXdXdXdXdXdXdXdXdXdXdXdXdXdX. dXdXdXdXdXdXdXX dXdXdX",
"dXdXdXdXdXdXdXdXdXdXdXdXdXdXdXdXdXdXdX%.%.dXdXdXdXdXdX$.#.dXdXdX",
"dXdXdXdXdXdXdXdXdXdXdXdXdXdXdXdXdXdX#.wX$XdXdXdXdXdX[ qXoXdXdXdX",
"dXdXdXdXdXdXdXdXdXdXdXdXdXdXdXdXdXo.6XsX#XdXdXdXdXE 5XaXXXdXdXdX",
"dXdXdXdXdXdXdXdXdXdXdXdXdXdXdXdX#.4XiXiX@XdXdXdXE 3XiXuXXXdXdXdX",
"dXdXdXdXdXdXdXdXdXdXdXdXdXdXdX[ ,X7X8XrXOXdXdX[ ;XyXyXrXXXdXdXdX",
"dXdXdXdXdXdXdXdXdXdXdXdXdXdX] &X_.)._.=X|.dXo.-X9X9X7X<X}.dXdXdX",
"dXdXdXdXdXdXdXdXdXdXdXdXdX{ Q.K.A.A.A.).<.T +X>X2X2X{._.5.dXdXdX",
"dXdXdXdXdXdXdXdXdXdXdXdX] Q.A.c.c.c.c.J.0.0./.c.^._.c.K.9.dXdXdX",
"dXdXdXdXdXdXdXdXdXdXdX{ E.c.k.k.k.k.k.V.:XH.k.k.k.k.J A.9.dXdXdX",
"dXdXdXdXdXdXdXdXdXdX_ R.J N Z Z Z N N Z k.J N N N N N V.9.dXdXdX",
"dXdXdXdXdXdXdXdXdX_ T.N j j j j V.M.j j j j J C.j j j A 9.dXdXdX",
"dXdXdXdXdXdXdXdX~ T.j r i i i j.*XF.i i i j W.[.i d r J 9.dXdXdX",
"dXdXdXdXdXdXdX~ a.r r 6 r 0 A =.~ g.0 0 j U.T L.0 0 0 V 9.dXdXdX",
"dXdXdXdXdXdX_ i.0 2 6 2 2 n :.dX| d.2 r P.I E P.6 2 2 V 1.dXdXdX",
"dXdXdXdXdX_ w.2 : : , : f :.dXdXdXl 7 t.I dXdXt.< : 0 J 9.dXdXdX",
"dXdXdXdX_ w.: = - - - u ;.dXdXdXdXg.y.I dXdXdXy.- : r J 9.dXdXdX",
"dXdXdXQ y * % % % % q *.dXdXdXdX&.q.! dXdXdXdXy.% : i V 1.dXdXdX",
"dXdXP %Xf.v v v s.s.*.dXdXdXdXdXdXP dXdXdXdXdX,.v h.Z.~. .dXdXdX",
"dXdX. @ dXdXdXdXdXO dXdXdXdXdXdXdXdXdXdXdXdXdXo dXdXdXO dXdXdXdX",
"dXdXdXdXdXdXdXdXdXdXdXdXdXdXdXdXdXdXdXdXdXdXdXdXdXdXdXdXdXdXdXdX",
"dXdXdXdXdXdXdXdXdXdXdXdXdXdXdXdXdXdXdXdXdXdXdXdXdXdXdXdXdXdXdXdX",
"dXdXdXdXdXdXdXdXdXdXdXdXdXdXdXdXdXdXdXdXdXdXdXdXdXdXdXdXdXdXdXdX",
"dXdXdXdXdXdXdXdXdXdXdXdXdXdXdXdXdXdXdXdXdXdXdXdXdXdXdXdXdXdXdXdX",
"dXdXdXdXdXdXdXdXdXdXdXdXdXdXdXdXdXdXdXdXdXdXdXdXdXdXdXdXdXdXdXdX",
"dXdXdXdXdXdXdXdXdXdXdXdXdXdXdXdXdXdXdXdXdXdXdXdXdXdXdXdXdXdXdXdX"
};
